<?xml version="1.0" encoding="utf-8"?>
<!-- Generator: Adobe Illustrator 26.0.3, SVG Export Plug-In . SVG Version: 6.00 Build 0)  -->
<svg version="1.1" id="Слой_1" xmlns="http://www.w3.org/2000/svg" xmlns:xlink="http://www.w3.org/1999/xlink" x="0px" y="0px"
	 viewBox="0 0 256 256" style="enable-background:new 0 0 256 256;" xml:space="preserve">
<style type="text/css">
	.st0{fill:#D92727;}
</style>
<path class="st0" d="M219.5,161.6c-0.3-12.3-5.9-23.4-11.9-35.2c-9.3-18.3-18.9-37.3-11-64.8c0.6-2.2-0.1-4.5-1.8-5.9
	c-1.7-1.4-4.1-1.7-6.1-0.7c-8.8,4.5-18.2,10.2-25.7,19.1c-2.6-28.9-16-52.9-40.1-71.6c-1.8-1.4-4.3-1.6-6.3-0.4
	c-2,1.1-3.1,3.4-2.8,5.6c4.3,31,0.9,51-13.3,74.5c-10-15.6-22.9-25.6-40.1-31.2c-2-0.7-4.3-0.1-5.8,1.4c-1.5,1.5-2,3.8-1.2,5.8
	c9,24.9,0.8,45.6-7.1,65.7c-5,12.8-9.8,24.9-10,37.5c-0.1,0.3-0.1,0.7-0.1,1c0,50.6,41.1,91.7,91.7,91.7s91.7-41.1,91.7-91.7
	C219.6,162.3,219.5,161.9,219.5,161.6z"/>
</svg>
