<?xml version="1.0" encoding="utf-8"?>
<!-- Generator: Adobe Illustrator 26.0.3, SVG Export Plug-In . SVG Version: 6.00 Build 0)  -->
<svg version="1.1" id="Слой_1" xmlns="http://www.w3.org/2000/svg" xmlns:xlink="http://www.w3.org/1999/xlink" x="0px" y="0px"
	 viewBox="0 0 32 32" style="enable-background:new 0 0 32 32;" xml:space="preserve">
<style type="text/css">
	.st0{fill:#FFFFFF;}
</style>
<path class="st0" d="M16,2.5c15.3-0.2,18.8,22,4.5,26.7c0.1-2.4,0.4-6-2.1-7.3c6.2-0.5,8.6-5.5,5.2-9.5c0.3-1.1,0.7-3.3-0.1-4.1
	c-2.1,0-3.3,1.3-3.6,1.7c-2-0.7-4.6-0.7-6.7,0c-0.3-0.3-1.5-1.7-3.6-1.7C8.8,9,9.2,11.2,9.5,12.3c-3.4,4.1-1,9,5.3,9.6
	c-0.8,0.4-1.4,1.3-1.8,2.2c-4.6,0.7-2.6-1-5.6-2.2c-0.4,0-0.7,0.2-0.3,0.5c1.1,0.8,1.2,2.1,1.6,2.9c0.6,1.4,2.6,1.2,3.9,1.2
	c0,0.5-0.1,2.6,0.1,3C-2.7,25.9,0,2.3,16,2.5L16,2.5z"/>
</svg>
