<?xml version="1.0" encoding="utf-8"?>
<!-- Generator: Adobe Illustrator 26.0.3, SVG Export Plug-In . SVG Version: 6.00 Build 0)  -->
<svg version="1.1" id="Слой_1" xmlns="http://www.w3.org/2000/svg" xmlns:xlink="http://www.w3.org/1999/xlink" x="0px" y="0px"
	 viewBox="0 0 32 32" style="enable-background:new 0 0 32 32;" xml:space="preserve">
<style type="text/css">
	.st0{fill:#FFFFFF;}
</style>
<g>
	<rect x="3.9" y="11.6" class="st0" width="5.4" height="17.3"/>
	<path class="st0" d="M6.5,9.2c-1.7,0-3-1.5-3-3c0-1.7,1.3-3.2,3-3.2s3,1.3,3,3C9.7,7.7,8.2,9.2,6.5,9.2z"/>
	<path class="st0" d="M29.4,28.9H24v-8.4c0-1.9,0-4.5-2.8-4.5s-3.2,2.2-3.2,4.5v8.6h-5.4V11.8h5.2v2.4l0,0c0.7-1.3,2.4-2.8,5.2-2.8
		c5.4,0,6.5,3.7,6.5,8.2L29.4,28.9L29.4,28.9z"/>
</g>
</svg>
