<svg class="svg-icon" style="width: 1em; height: 1em;vertical-align: middle;fill: currentColor;overflow: hidden;" viewBox="0 0 1024 1024" version="1.1" xmlns="http://www.w3.org/2000/svg"><path d="M336.016 800a80 80 0 1 0-0.048 160 80 80 0 0 0 0.048-160z m23.936-656l10.736 79.84h542.048c-7.824 48-24.128 154.624-57.92 371.424-5.184 33.12-37.584 60.736-70.736 60.736H424.96c-33.296 0-66.288-27.92-70.592-60.016-51.84-385.712-56.032-417.76-56.16-418.656C287.36 104.992 221.568 48 148.4 48H16v80h132.4c32.8 0 65.84 28.896 70.592 60.624 0 0 4.064 30.752 56.096 417.792 9.6 71.472 76.832 129.584 149.888 129.584h359.104c72.704 0 138.48-56.24 149.76-128.448C1003.728 159.392 997.968 192 1006.24 144H359.952zM832 800c-44.224 0-80 35.808-80 80a80 80 0 1 0 160 0 80 80 0 0 0-80-80z" fill="#565D64" /></svg>